<svg xmlns="http://www.w3.org/2000/svg" viewBox="0 0 512 512">
  <defs>
    <!-- Universal Gradient: Visible on Light (White) and Dark (Black/Gray) 
         Uses a mid-tone Slate Blue to Light Gray range.
    -->
    <linearGradient id="metalGrad" x1="0%" y1="0%" x2="100%" y2="100%">
      <stop offset="0%" style="stop-color:#94a3b8;stop-opacity:1" /> <!-- Slate 400 (visible on dark) -->
      <stop offset="50%" style="stop-color:#64748b;stop-opacity:1" /> <!-- Slate 500 (visible on light) -->
      <stop offset="100%" style="stop-color:#475569;stop-opacity:1" /> <!-- Slate 600 -->
    </linearGradient>
    
    <linearGradient id="circuitGrad" x1="0%" y1="0%" x2="100%" y2="0%">
        <stop offset="0%" style="stop-color:#63b3ed;stop-opacity:1"/> <!-- Blue 400 -->
        <stop offset="100%" style="stop-color:#4299e1;stop-opacity:1"/> <!-- Blue 500 -->
    </linearGradient>
  </defs>

  <g transform="translate(256, 256)">
    
    <!-- BACK LAYER -->
    <path d="M-100 -120 L0 -180 L100 -120 V0 L0 60 L-100 0 Z" 
          fill="none" stroke="url(#metalGrad)" stroke-width="40" stroke-linecap="round" stroke-linejoin="round" opacity="0.6"/>

     <!-- Tech Circuit Overlay on Back Layer -->
     <!-- Changed to explicit color for visibility -->
    <path d="M0 -180 V0" stroke="#63b3ed" stroke-width="4" opacity="0.6"/>
    <circle cx="0" cy="-90" r="6" fill="#63b3ed" opacity="0.6"/>

    <!-- FRONT INTERLOCKING SHAPES -->
    
    <!-- Shape A: The Processor (Left) -->
    <path d="M-60 60 L-140 20 L-140 -100 L-60 -140 L20 -100" 
          fill="none" 
          stroke="url(#metalGrad)" 
          stroke-width="36" 
          stroke-linecap="round" 
          stroke-linejoin="round" />
          
    <path d="M-60 60 L-140 20 L-140 -100 L-60 -140 L20 -100" 
          fill="none" 
          stroke="white" 
          stroke-width="2" 
          stroke-opacity="0.2"
          stroke-linecap="round" 
          stroke-linejoin="round" />
          
    <!-- Shape B: The Repository (Right) -->
    <path d="M60 -140 L140 -100 L140 20 L60 60 L-20 20" 
          fill="none" 
          stroke="url(#metalGrad)" 
          stroke-width="36" 
          stroke-linecap="round" 
          stroke-linejoin="round" />

    <path d="M60 -140 L140 -100 L140 20 L60 60 L-20 20" 
          fill="none" 
          stroke="white" 
          stroke-width="2" 
          stroke-opacity="0.2"
          stroke-linecap="round" 
          stroke-linejoin="round" />

    <!-- Shape C: The Link (Bottom) -->
    <path d="M-20 20 L0 100 L80 140 L160 100" 
         fill="none" stroke="#63b3ed" stroke-width="6" stroke-linecap="round" stroke-dasharray="10 10" opacity="0.4"/>

    <!-- ACTIVE CIRCUITRY (The "Cool" Modern Part) -->
    <!-- Using Bright Blue, universally visible -->
    
    <path d="M-140 -40 L-60 0 L0 -40 L60 0 L140 -40" 
          fill="none" 
          stroke="#3b82f6" 
          stroke-width="6" 
          stroke-linecap="round" 
          stroke-linejoin="round" />
          
    <circle cx="-60" cy="0" r="10" fill="#3b82f6" />
    <circle cx="60" cy="0" r="10" fill="#3b82f6" />
    
    <!-- Central Node (The Brain) -->
    <g transform="translate(0, -40)">
        <circle cx="0" cy="0" r="24" fill="#3b82f6" stroke="none" />
        <circle cx="0" cy="0" r="34" fill="none" stroke="#60a5fa" stroke-width="2" opacity="0.8"/>
    </g>

  </g>
</svg>
